<?xml version="1.0" encoding="UTF-8" standalone="no"?>
<svg width="1128px" height="1128px" viewBox="0 0 1128 1128" version="1.1" xmlns="http://www.w3.org/2000/svg" xmlns:xlink="http://www.w3.org/1999/xlink">
    <!-- Generator: Sketch 3.7 (28169) - http://www.bohemiancoding.com/sketch -->
    <title>bg-polygons</title>
    <desc>Created with Sketch.</desc>
    <defs></defs>
    <g id="Page-1" stroke="none" stroke-width="1" fill="none" fill-rule="evenodd">
        <g id="bg-polygons">
            <polygon id="Rectangle-1" fill-opacity="0.0399999991" fill="#3C90D6" points="188 0 188 188 0 188"></polygon>
            <polygon id="Rectangle-1-Copy-4" fill-opacity="0.0399999991" fill="#3C90D6" transform="translate(470.000000, 470.000000) rotate(-90.000000) translate(-470.000000, -470.000000) " points="564 376 564 564 376 564"></polygon>
            <polygon id="Rectangle-1-Copy-2" fill-opacity="0.219999999" fill="#202E39" points="376 188 376 376 188 376"></polygon>
            <polygon id="Rectangle-1-Copy" fill-opacity="0.0399999991" fill="#84B7E2" points="940 0 940 188 752 188"></polygon>
            <polygon id="Rectangle-1-Copy-3" fill-opacity="0.0399999991" fill="#84B7E2" points="188 376 188 564 0 564"></polygon>
            <polygon id="Rectangle-2-Copy-16" fill-opacity="0.0500000007" fill="#2F7BA3" points="752 187.936075 940 375.936075 940 563.936075 752 375.936075"></polygon>
            <polygon id="Rectangle-2-Copy-29" fill-opacity="0.0299999993" fill="#53DFE6" transform="translate(470.000000, 752.000000) scale(-1, 1) translate(-470.000000, -752.000000) " points="376 564 564 752 564 940 376 752"></polygon>
            <polygon id="Rectangle-2-Copy-37" fill-opacity="0.0299999993" fill="#89BED9" transform="translate(94.000000, 846.000000) scale(-1, 1) translate(-94.000000, -846.000000) " points="0 658 188 846 188 1034 0 846"></polygon>
            <polygon id="Rectangle-2-Copy-34" fill-opacity="0.26000002" fill="#054B53" transform="translate(235.000000, 1034.000000) rotate(90.000000) translate(-235.000000, -1034.000000) " points="141 893 329 1081 329 1175 141 987"></polygon>
            <polygon id="Rectangle-2-Copy-30" fill-opacity="0.0500000007" fill="#FFFFFF" transform="translate(846.000000, 752.000000) scale(-1, 1) translate(-846.000000, -752.000000) " points="752 564 940 752 940 940 752 752"></polygon>
            <polygon id="Rectangle-2-Copy-39" fill-opacity="0.0700000003" fill="#000000" transform="translate(1034.000000, 954.000000) scale(-1, 1) translate(-1034.000000, -954.000000) " points="940 766 1128 954 1128 1142 940 954"></polygon>
            <polygon id="Rectangle-2-Copy-24" fill-opacity="0.0500000007" fill="#9DD2B0" points="940 376 1128 564 1128 752 940 564"></polygon>
            <rect id="Rectangle-2-Copy-12" fill-opacity="0.0299999993" fill="#C5E6E4" x="188" y="376" width="188" height="188"></rect>
            <rect id="Rectangle-2-Copy-33" fill-opacity="0.0299999993" fill="#C5E6E4" x="376" y="940" width="188" height="188"></rect>
            <polygon id="Rectangle-2-Copy-4" fill-opacity="0.0700000003" fill="#84C9DC" transform="translate(657.968037, 187.968037) rotate(-135.000000) translate(-657.968037, -187.968037) " points="724.413474 121.522601 724.413474 254.413474 591.522601 254.413474"></polygon>
            <polygon id="Rectangle-2-Copy-20" fill-opacity="0.0700000003" fill="#84C9DC" transform="translate(469.968037, 563.968037) rotate(-135.000000) translate(-469.968037, -563.968037) " points="536.413474 497.522601 536.413474 630.413474 403.522601 630.413474"></polygon>
            <polygon id="Rectangle-2-Copy-7" fill-opacity="0.0399999991" fill="#569C68" transform="translate(657.968037, 187.968037) rotate(-315.000000) translate(-657.968037, -187.968037) " points="724.413474 121.522601 724.413474 254.413474 591.522601 254.413474"></polygon>
            <polygon id="Rectangle-2-Copy-5" fill-opacity="0.0700000003" fill="#BAF1FF" transform="translate(563.968037, 93.968037) rotate(-45.000000) translate(-563.968037, -93.968037) " points="630.413474 27.5226009 630.413474 160.413474 497.522601 160.413474"></polygon>
            <polygon id="Rectangle-2-Copy-21" fill-opacity="0.0700000003" fill="#1F5336" transform="translate(375.968037, 469.968037) rotate(-45.000000) translate(-375.968037, -469.968037) " points="442.413474 403.522601 442.413474 536.413474 309.522601 536.413474"></polygon>
            <polygon id="Rectangle-2-Copy-14" fill-opacity="0.0700000003" fill="#BAF1FF" transform="translate(93.968037, 281.968037) rotate(-225.000000) translate(-93.968037, -281.968037) " points="160.413474 215.522601 160.413474 348.413474 27.5226009 348.413474"></polygon>
            <polygon id="Rectangle-2-Copy-38" fill-opacity="0.0700000003" fill="#1B99BB" transform="translate(940.515981, 939.968037) rotate(-225.000000) translate(-940.515981, -939.968037) " points="1073.81691 806.667109 1073.81691 1073.26897 807.215053 1073.26897"></polygon>
            <polygon id="Rectangle-2-Copy-26" fill-opacity="0.0700000003" fill="#193239" transform="translate(657.968037, 563.968037) rotate(-225.000000) translate(-657.968037, -563.968037) " points="724.413474 497.522601 724.413474 630.413474 591.522601 630.413474"></polygon>
            <polygon id="Rectangle-2-Copy-31" fill-opacity="0.170000002" fill="#193239" transform="translate(751.968037, 845.968037) rotate(-225.000000) translate(-751.968037, -845.968037) " points="818.413474 779.522601 818.413474 912.413474 685.522601 912.413474"></polygon>
            <polygon id="Rectangle-2-Copy-22" fill-opacity="0.100000001" fill="#C1E0E9" transform="translate(751.968037, 469.968037) rotate(-225.000000) translate(-751.968037, -469.968037) " points="818.413474 403.522601 818.413474 536.413474 685.522601 536.413474"></polygon>
            <polygon id="Rectangle-2-Copy-28" fill-opacity="0.049999997" fill="#C1E0E9" transform="translate(657.968037, 751.968037) rotate(-225.000000) translate(-657.968037, -751.968037) " points="724.413474 685.522601 724.413474 818.413474 591.522601 818.413474"></polygon>
            <polygon id="Rectangle-2-Copy-13" fill-opacity="0.119999997" fill="#000000" transform="translate(93.968037, 281.968037) rotate(-45.000000) translate(-93.968037, -281.968037) " points="160.413474 215.522601 160.413474 348.413474 27.5226009 348.413474"></polygon>
            <polygon id="Rectangle-2-Copy-27" fill-opacity="0.119999997" fill="#000000" transform="translate(563.968037, 657.968037) rotate(-45.000000) translate(-563.968037, -657.968037) " points="630.413474 591.522601 630.413474 724.413474 497.522601 724.413474"></polygon>
            <polygon id="Rectangle-2-Copy-36" fill-opacity="0.100000001" fill="#000000" transform="translate(93.968037, 1033.968037) rotate(-225.000000) translate(-93.968037, -1033.968037) " points="160.413474 967.522601 160.413474 1100.41347 27.5226009 1100.41347"></polygon>
            <polygon id="Rectangle-2-Copy-8" fill-opacity="0.0700000003" fill="#CCD6BD" transform="translate(751.968037, 281.968037) rotate(-225.000000) translate(-751.968037, -281.968037) " points="818.413474 215.522601 818.413474 348.413474 685.522601 348.413474"></polygon>
            <polygon id="Rectangle-2-Copy-11" fill-opacity="0.0299999993" fill="#84D892" transform="translate(187.968037, 469.968037) rotate(-225.000000) translate(-187.968037, -469.968037) " points="254.413474 403.522601 254.413474 536.413474 121.522601 536.413474"></polygon>
            <polygon id="Rectangle-2-Copy-3" fill-opacity="0.0299999993" fill="#A9D5D6" points="376 0 564 0 564 188"></polygon>
            <polygon id="Rectangle-2-Copy-10" fill-opacity="0.0799999982" fill="#FFFFFF" points="188 188 376 188 376 376"></polygon>
            <polygon id="Rectangle-2-Copy-6" fill-opacity="0.290000021" fill="#000000" points="564 0 658 0 658 94"></polygon>
            <polygon id="Rectangle-2-Copy-2" fill-opacity="0.109999999" fill="#000000" points="376 0 376 188 188 188"></polygon>
            <polygon id="Rectangle-2-Copy-17" fill-opacity="0.109999999" fill="#000000" transform="translate(846.000000, 281.936075) rotate(-90.000000) translate(-846.000000, -281.936075) " points="940 187.936075 940 375.936075 752 375.936075"></polygon>
            <polygon id="Rectangle-2-Copy-18" fill-opacity="0.0700000003" fill="#FFFFFF" transform="translate(658.000000, 282.000000) rotate(-270.000000) translate(-658.000000, -282.000000) " points="752 188 752 376 564 376"></polygon>
            <polygon id="Rectangle-2-Copy-35" fill-opacity="0.100000001" fill="#FFFFFF" transform="translate(47.000000, 1081.000000) rotate(-270.000000) translate(-47.000000, -1081.000000) " points="94 1034 94 1128 0 1128"></polygon>
            <polygon id="Rectangle-2-Copy-23" fill-opacity="0.0399999991" fill="#7F4AC4" transform="translate(1034.000000, 282.000000) rotate(-270.000000) translate(-1034.000000, -282.000000) " points="1128 188 1128 376 940 376"></polygon>
            <polygon id="Rectangle-2-Copy-9" fill-opacity="0.0700000003" fill="#4C4361" points="564 188 564 376 376 376"></polygon>
            <polygon id="Rectangle-2-Copy-40" fill-opacity="0.0700000003" fill="#546143" points="376 751 376 939 188 939"></polygon>
            <polygon id="Rectangle-2-Copy-32" fill-opacity="0.0700000003" fill="#4C4361" points="564 752 564 940 376 940"></polygon>
            <polygon id="Rectangle-2-Copy" fill-opacity="0.0700000003" fill="#A6ECB4" points="188 0 376 0 188 188"></polygon>
            <polygon id="Rectangle-2-Copy-19" fill-opacity="0.0700000003" fill="#A6ECB4" points="564 376 752 376 564 564"></polygon>
            <polygon id="Rectangle-2-Copy-25" fill-opacity="0.0199999996" fill="#A6ECE9" points="752 564 940 564 752 752"></polygon>
            <polygon id="Rectangle-2-Copy-15" fill-opacity="0.0700000003" fill="#A6ECB4" points="0 376 188 376 0 564"></polygon>
        </g>
    </g>
</svg>