<?xml version="1.0" standalone="no"?>
<!DOCTYPE svg PUBLIC "-//W3C//DTD SVG 20010904//EN"
 "http://www.w3.org/TR/2001/REC-SVG-20010904/DTD/svg10.dtd">
<svg version="1.0" xmlns="http://www.w3.org/2000/svg"
 width="300.000000pt" height="300.000000pt" viewBox="0 0 300.000000 300.000000"
 preserveAspectRatio="xMidYMid meet">
<metadata>
Created by potrace 1.11, written by Peter Selinger 2001-2013
</metadata>
<g transform="translate(0.000000,300.000000) scale(0.100000,-0.100000)"
fill="#000000" stroke="none">
<path d="M959 2993 c-2 -12 -5 -67 -13 -193 -4 -63 -9 -137 -11 -165 -2 -27
-7 -97 -10 -155 -5 -84 -21 -166 -81 -410 -42 -168 -77 -313 -79 -323 -2 -10
-7 -27 -10 -37 -3 -10 -8 -27 -10 -37 -2 -10 -29 -121 -61 -247 l-57 -228 18
-32 c10 -17 37 -56 59 -88 50 -69 34 -46 222 -318 l156 -224 -20 -66 c-11 -36
-46 -144 -77 -240 -32 -96 -61 -187 -65 -202 l-9 -28 585 0 c321 0 584 3 584
8 0 4 -38 124 -85 267 l-85 259 52 76 c29 41 91 130 138 197 47 67 126 182
177 255 l91 133 -15 55 c-15 57 -47 186 -63 255 -5 22 -54 222 -110 444 -112
450 -106 421 -115 586 -4 66 -8 137 -10 157 -3 33 -17 260 -18 296 0 9 -115
12 -539 12 -296 0 -538 -3 -539 -7z"/>
</g>
</svg>
